<svg width="250" height="250" viewBox="0 0 250 250" fill="none" xmlns="http://www.w3.org/2000/svg">
<path d="M61.2917 194.302C58.1667 192.219 55.4792 189.562 52.3334 185.802C50.7007 183.803 49.0826 181.793 47.4792 179.771C42.6563 173.781 39.6146 171.01 36.4792 169.875C35.1599 169.438 33.9414 168.742 32.8953 167.827C31.8492 166.913 30.9967 165.798 30.3879 164.549C29.7792 163.299 29.4266 161.941 29.3509 160.553C29.2752 159.166 29.4779 157.777 29.947 156.469C30.4162 155.161 31.1423 153.96 32.0827 152.937C33.023 151.914 34.1586 151.089 35.4225 150.512C36.6864 149.934 38.0531 149.615 39.4421 149.574C40.8312 149.532 42.2144 149.769 43.5105 150.271C51.3438 153.083 56.6459 157.927 63.7917 166.812C62.8125 165.594 67.3334 171.26 68.3021 172.427C70.2813 174.792 71.7396 176.229 72.8855 176.99C75.0105 178.417 79.0105 179.031 84.8646 178.448C85.1146 174.469 85.8438 170.604 86.9688 167.042C56.0521 159.479 38.5521 139.542 38.5521 100.417C38.5521 87.5 42.4063 75.875 49.573 66.125C47.3021 56.8125 47.6459 45.552 52.7188 32.875C53.2945 31.441 54.182 30.153 55.3171 29.1044C56.4521 28.0559 57.8062 27.273 59.2813 26.8125C60.125 26.5625 60.6042 26.4479 61.448 26.3229C69.8125 25.0312 81.625 28.0937 97.0209 37.7395C106.195 35.5917 115.588 34.5151 125.01 34.5312C134.51 34.5312 143.958 35.6145 152.969 37.7395C168.354 28.0208 180.198 24.9583 188.615 26.3229C189.504 26.4618 190.26 26.6354 190.885 26.8437C192.332 27.3205 193.656 28.1086 194.764 29.1525C195.873 30.1963 196.739 31.4705 197.302 32.8854C202.375 45.552 202.719 56.802 200.448 66.1145C207.646 75.8645 211.469 87.4166 211.469 100.417C211.469 139.552 194.031 159.427 163.115 167C164.417 171.323 165.094 176.146 165.094 181.375C165.094 188.302 165.073 194.906 165.021 202.312C165.021 204.292 165 206.417 164.969 209.667C167.308 210.176 169.401 211.475 170.895 213.347C172.388 215.218 173.192 217.547 173.17 219.941C173.148 222.335 172.302 224.649 170.774 226.492C169.246 228.336 167.13 229.596 164.781 230.062C152.906 232.427 144.115 224.521 144.115 214.177L144.135 209.521L144.188 202.177C144.24 194.812 144.271 188.25 144.271 181.375C144.271 174.115 142.354 169.375 139.833 167.198C132.948 161.26 136.438 149.969 145.469 148.958C176.365 145.49 190.635 133.521 190.635 100.417C190.635 90.4687 187.385 82.25 181.125 75.375C179.808 73.9264 178.925 72.1359 178.579 70.2087C178.232 68.2815 178.436 66.2958 179.167 64.4791C180.896 60.1666 181.625 54.5104 180.156 47.6666L180.052 47.6979C174.938 49.1458 168.49 52.2812 160.698 57.5833C159.442 58.436 158.014 59.0036 156.515 59.2465C155.016 59.4895 153.482 59.4017 152.021 58.9895C143.229 56.5517 134.145 55.3286 125.021 55.3541C115.75 55.3541 106.563 56.5833 98.0209 59C96.5664 59.4073 95.0407 59.4934 93.5496 59.2524C92.0584 59.0114 90.6376 58.449 89.3855 57.6041C81.5417 52.3229 75.073 49.1979 69.9063 47.7395C68.4167 54.5416 69.1563 60.177 70.875 64.4791C71.6022 66.2953 71.8032 68.2796 71.455 70.2048C71.1068 72.1299 70.2235 73.9181 68.9063 75.3645C62.6875 82.1875 59.3959 90.552 59.3959 100.406C59.3959 133.448 73.6771 145.49 104.417 148.948C113.427 149.958 116.938 161.208 110.094 167.156C108.083 168.906 105.615 174.781 105.615 181.365V214.177C105.615 224.437 96.9271 232.146 85.198 230.094C82.8205 229.676 80.6618 228.446 79.0908 226.614C77.5198 224.781 76.6341 222.46 76.5849 220.046C76.5357 217.633 77.3261 215.278 78.8211 213.382C80.3161 211.487 82.4228 210.17 84.7813 209.656V199.344C75.3021 199.979 67.4792 198.427 61.3021 194.292" fill="#F8F8F8"/>
</svg>
